<?xml version="1.0" encoding="utf-8" standalone="no"?>
<!DOCTYPE svg PUBLIC "-//W3C//DTD SVG 1.1//EN" "http://www.w3.org/Graphics/SVG/1.1/DTD/svg11.dtd">
<svg version="1.1" width="2383.92pt" height="3370.32pt" viewBox="0 0 2383.92 3370.32" overflow="visible" xmlns="http://www.w3.org/2000/svg">
  <g id="Default">
    <path d="M942.7347,1883.3456 A33.83055,33.83055 0 0 0 976.5652,1849.515 C976.5652,1838.2382 976.5652,1826.9613 970.9268,1821.3229 C965.2884,1815.6843 954.0115,1815.6843 948.37305,1821.3229 C942.7346,1826.9613 942.7346,1838.2382 937.09625,1843.8765 C931.4578,1849.515 920.18097,1849.515 914.54254,1843.8765 C908.9041,1838.2382 908.9041,1826.9613 914.54254,1815.6843 C920.18097,1804.4076 931.4578,1793.1307 942.7346,1787.4923 C954.0115,1781.8539 965.2884,1781.8539 976.5652,1787.4923 C987.8421,1793.1307 999.11896,1804.4076 1004.7573,1815.6843 C1010.39575,1826.9613 1010.39575,1838.2382 1010.39575,1860.7919 C1010.39575,1867.5934 1010.39575,1875.4205 1010.2411,1883.3455 L1078.0569,1883.3455 A33.83055,33.83055 0 0 0 1111.8875,1849.515 C1111.8875,1838.2382 1111.8875,1826.9613 1106.2489,1821.3229 C1100.6106,1815.6843 1089.3337,1815.6843 1083.6953,1821.3229 C1078.0569,1826.9613 1078.0569,1838.2382 1072.4185,1843.8765 C1066.7799,1849.515 1055.5032,1849.515 1049.8647,1843.8765 C1044.2263,1838.2382 1044.2263,1826.9613 1049.8647,1815.6843 C1055.5032,1804.4076 1066.7799,1793.1307 1078.0569,1787.4923 C1089.3337,1781.8539 1100.6106,1781.8539 1111.8875,1787.4923 C1123.1643,1793.1307 1134.441,1804.4076 1140.0796,1815.6843 C1145.7179,1826.9613 1145.7179,1838.2382 1145.7179,1860.7919 C1145.7179,1867.5934 1145.7179,1875.4205 1145.5634,1883.3455 L1213.379,1883.3455 A33.83055,33.83055 0 0 0 1247.2096,1849.515 C1247.2096,1838.2382 1247.2096,1826.9613 1241.5712,1821.3229 C1235.9327,1815.6843 1224.6559,1815.6843 1219.0176,1821.3229 C1213.379,1826.9613 1213.379,1838.2382 1207.7406,1843.8765 C1202.1022,1849.515 1190.8254,1849.515 1185.1869,1843.8765 C1179.5486,1838.2382 1179.5486,1826.9613 1185.1869,1815.6843 C1190.8254,1804.4076 1202.1022,1793.1307 1213.379,1787.4923 C1224.6559,1781.8539 1235.9327,1781.8539 1247.2096,1787.4923 C1258.4865,1793.1307 1269.7633,1804.4076 1275.4017,1815.6843 C1281.0402,1826.9613 1281.0402,1838.2382 1281.0402,1860.7919 C1281.0402,1867.5934 1281.0402,1875.4205 1280.8855,1883.3455 L1348.7012,1883.3455 A33.83055,33.83055 0 0 0 1382.5319,1849.515 C1382.5319,1838.2382 1382.5319,1826.9613 1376.8933,1821.3229 C1371.255,1815.6843 1359.9781,1815.6843 1354.3397,1821.3229 C1348.7012,1826.9613 1348.7012,1838.2382 1343.0629,1843.8765 C1337.4243,1849.515 1326.1476,1849.515 1320.5092,1843.8765 C1314.8707,1838.2382 1314.8707,1826.9613 1320.5092,1815.6843 C1326.1476,1804.4076 1337.4243,1793.1307 1348.7012,1787.4923 C1359.9781,1781.8539 1371.255,1781.8539 1382.5319,1787.4923 C1393.8087,1793.1307 1405.0854,1804.4076 1410.724,1815.6843 C1416.3623,1826.9613 1416.3623,1838.2382 1416.3623,1860.7919 C1416.3623,1867.5934 1416.3623,1875.4205 1416.2078,1883.3455 L1450.193,1883.3455 L1450.193,1172.904 L841.243,1172.904 L841.243,1883.3455 z" stroke="#000000" stroke-width="0.24" stroke-linecap="round" stroke-linejoin="round" fill="none" />
    <path d="M875.07355,1748.0233 L1416.3623,1748.0233 L1416.3623,1206.7345 L875.07355,1206.7345 z" stroke="#000000" stroke-width="0.24" stroke-linecap="round" stroke-linejoin="round" fill="none" />
  </g>
</svg>